<svg xmlns="http://www.w3.org/2000/svg" viewBox="0 0 512 512">
	<path d="M431.803,84.233H310.111l-15.816-55.349C289.435,11.878,273.687,0,256,0c-17.688,0-33.435,11.878-38.295,28.885
		l-15.816,55.349H80.197c-8.284,0-15,6.716-15,15V334.13c0,8.284,6.716,15,15,15h45.997L94.163,461.223
		c-6.034,21.115,6.236,43.204,27.355,49.239c21.113,6.028,43.201-6.242,49.234-27.354l38.285-133.979h93.925l38.285,133.979
		c4.861,17.011,20.604,28.892,38.29,28.892c3.692-0.002,7.374-0.519,10.949-1.539c21.116-6.034,33.385-28.123,27.352-49.238
		l-32.031-112.094h45.997c8.284,0,15-6.716,15-15V99.233C446.803,90.949,440.087,84.233,431.803,84.233z M246.551,37.127
		C247.75,32.931,251.635,30,256,30s8.25,2.931,9.449,7.127l13.461,47.106h-45.82L246.551,37.127z M141.906,474.866
		c-1.487,5.208-6.936,8.24-12.148,6.749c-5.21-1.488-8.238-6.939-6.749-12.15l34.386-120.336h20.441L141.906,474.866z
		 M388.99,469.465c1.49,5.211-1.537,10.662-6.743,12.149c-0.896,0.256-1.812,0.386-2.717,0.386c-4.356,0-8.237-2.934-9.437-7.134
		l-35.93-125.737h20.441L388.99,469.465z M416.802,319.129H95.197v0v-45.478l42.925-12.072c23.342-6.565,47.845-6.003,70.861,1.625
		c30.723,10.183,63.238,10.296,94.029,0.333l7.846-2.538c28.215-9.132,58.712-7.603,85.874,4.305l20.07,8.798V319.129z
		 M416.803,241.345l-8.025-3.518c-33.893-14.857-71.948-16.764-107.154-5.371l-7.846,2.538
		c-24.678,7.985-50.735,7.893-75.356-0.267c-28.719-9.519-59.295-10.221-88.421-2.027l-34.803,9.787V114.233h321.605V241.345z"/>
	<path d="M170.509,136.96c-22.042,0-39.973,17.932-39.973,39.974c0,22.042,17.932,39.974,39.973,39.974
		c22.041,0,39.974-17.932,39.974-39.974C210.483,154.892,192.551,136.96,170.509,136.96z M170.509,186.908
		c-5.499,0-9.973-4.475-9.973-9.974c0-5.499,4.474-9.974,9.973-9.974c5.5,0,9.974,4.475,9.974,9.974
		C180.483,182.433,176.009,186.908,170.509,186.908z"/>
</svg>
