<svg xmlns="http://www.w3.org/2000/svg" viewBox="0 0 512 512">
		<path d="M504.96,34.743c-4.384-2.976-10.016-3.616-14.912-1.6L336,94.743L182.24,33.239c0,0,0,0-0.032,0l-0.256-0.096
			c-3.808-1.536-8.064-1.536-11.872,0l-0.288,0.096c0,0,0,0-0.032,0L10.048,97.143C4,99.575,0,105.431,0,111.991v352
			c0,5.312,2.656,10.272,7.04,13.248c2.688,1.824,5.792,2.752,8.96,2.752c2.016,0,4.032-0.384,5.952-1.152L176,417.239
			l153.76,61.504c0,0,0,0,0.032,0l0.288,0.128c3.808,1.536,8.064,1.536,11.872,0l0.288-0.128c0,0,0,0,0.032,0l159.712-63.872
			C508,412.407,512,406.551,512,399.991v-352C512,42.679,509.344,37.719,504.96,34.743z M160,389.143l-128,51.2V122.807l128-51.2
			V389.143z M320,440.375l-128-51.2V71.639l128,51.2V440.375z M480,389.175l-128,51.2V122.839l128-51.2V389.175z"/>
</svg>
