<svg xmlns="http://www.w3.org/2000/svg" viewBox="0 0 516 516">
	<path d="M258,146.5c-22,0-40,17.9-40,40s17.9,40,40,40s40-17.9,40-40S280,146.5,258,146.5z M258,196.4c-5.5,0-10-4.5-10-10
		s4.5-10,10-10c5.5,0,10,4.5,10,10S263.5,196.4,258,196.4z"/>
	<path d="M334.2,208.4c-22,0-40,17.9-40,40s17.9,40,40,40c22,0,40-17.9,40-40S356.2,208.4,334.2,208.4z M334.2,258.4
		c-5.5,0-10-4.5-10-10s4.5-10,10-10c5.5,0,10,4.5,10,10S339.7,258.4,334.2,258.4z"/>
	<path d="M181.8,208.4c-22,0-40,17.9-40,40s17.9,40,40,40s40-17.9,40-40S203.9,208.4,181.8,208.4z M181.8,258.4c-5.5,0-10-4.5-10-10
		s4.5-10,10-10c5.5,0,10,4.5,10,10S187.3,258.4,181.8,258.4z"/>
	<path d="M305.3,302c-22,0-40,17.9-40,40c0,22,17.9,40,40,40s40-17.9,40-40C345.2,319.9,327.3,302,305.3,302z M305.3,351.9
		c-5.5,0-10-4.5-10-10s4.5-10,10-10c5.5,0,10,4.5,10,10S310.8,351.9,305.3,351.9z"/>
	<path d="M209.5,302c-22,0-40,17.9-40,40c0,22,17.9,40,40,40s40-17.9,40-40C249.5,319.9,231.5,302,209.5,302z M209.5,351.9
		c-5.5,0-10-4.5-10-10s4.5-10,10-10c5.5,0,10,4.5,10,10S215,351.9,209.5,351.9z"/>
	<path d="M406.8,2.2H109.2C88.7,2.2,72,18.9,72,39.4V477c0,20.5,16.7,37.2,37.2,37.2h297.6c20.5,0,37.2-16.7,37.2-37.2V39.4
		C444,18.9,427.3,2.2,406.8,2.2z M100.5,477V39.4c0-4.8,3.9-8.8,8.8-8.8h297.6c4.8,0,8.8,3.9,8.8,8.8V477c0,4.8-3.9,8.8-8.8,8.8
		H109.2C104.4,485.7,100.5,481.8,100.5,477z"/>
</svg>
