<svg xmlns="http://www.w3.org/2000/svg" viewBox="0 0 60 60">
<path d="M58.9,0.6c-0.7-0.7-1.8-0.7-2.5,0L53.1,4H30.8L1.5,33.5c-0.7,0.7-1,1.6-1,2.5s0.4,1.8,1,2.5L22,59c0.7,0.7,1.6,1,2.5,1
	c0.9,0,1.8-0.3,2.5-1l28.5-29.3V6.5l3.4-3.4C59.6,2.4,59.5,1.3,58.9,0.6z M45.3,17.3c0,1.7-1.3,3-3,3s-3-1.3-3-3s1.3-3,3-3
	c0.2,0,0.4,0,0.6,0.1l-0.5,0.5c-0.7,0.7-0.7,1.8,0,2.5c0.3,0.3,0.8,0.5,1.2,0.5c0.5,0,0.9-0.2,1.2-0.5l0.4-0.4
	C45.3,17.1,45.3,17.2,45.3,17.3z M44.8,11.3c-0.8-0.3-1.6-0.5-2.4-0.5c-3.6,0-6.5,2.9-6.5,6.5s2.9,6.5,6.5,6.5s6.5-2.9,6.5-6.5
	c0-0.9-0.2-1.7-0.5-2.5L52,11v17.2L24.5,56.5L4,36L32.3,7.5h16.1C47.9,8,45.2,10.9,44.8,11.3z"/>
</svg>
