<svg xmlns="http://www.w3.org/2000/svg" viewBox="0 0 460 460">
<path d="M457.7,11.9c0-3.1-1.2-6.1-3.5-8.4c-4.5-4.5-12-4.5-16.6,0l-24.2,25.3h-148l-249,249.5c-2.4,2.4-3.9,5.6-3.9,9
	c-0.1,3.4,1.2,6.7,3.6,9.1l0.4,0.4c2.4,2.4,5.6,3.9,9,3.9c3.4,0.1,6.7-1.2,9.1-3.6l67.1-64.8c2.4-2.4,5.7-3.6,9.1-3.6
	c3.4,0.1,6.6,1.5,9,3.9l0.9,1c2.4,2.4,3.6,5.7,3.6,9.1c-0.1,3.4-1.5,6.6-3.9,9l-86.7,83.5c-2.4,2.4-3.9,5.6-3.9,9
	c-0.1,3.4,1.2,6.7,3.6,9.1l0.4,0.4c2.4,2.4,5.6,3.9,9,3.9c3.4,0.1,6.7-1.2,9.1-3.6l39.7-38.3c2.4-2.4,5.7-3.6,9.1-3.6
	c3.4,0.1,6.6,1.5,9,3.9l0.4,0.4c2.4,2.4,3.6,5.7,3.6,9.1c-0.1,3.4-1.5,6.6-3.9,9l-68.4,65.8c-2.4,2.4-3.9,5.6-3.9,9
	c-0.1,3.4,1.2,6.7,3.6,9.1l0.4,0.4c2.4,2.4,5.6,3.9,9,3.9c3.4,0.1,6.7-1.2,9.1-3.6l92.7-89.2c2.4-2.4,5.7-3.6,9.1-3.6
	c3.4,0.1,6.6,1.5,9,3.9l0.4,0.4c2.4,2.4,3.6,5.7,3.6,9.1c-0.1,3.4-1.5,6.6-3.9,9l-57.5,55.4c-2.4,2.4-3.9,5.6-3.9,9
	c-0.1,3.4,1.2,6.7,3.6,9.1l0.4,0.4c2.4,2.4,5.6,3.9,9,3.9c3.4,0.1,6.7-1.2,9.1-3.6l72.3-69.5c2.4-2.4,5.7-3.6,9.1-3.6
	c3.4,0.1,6.6,1.5,9,3.9c4.9,5,4.8,13.1-0.2,18L155,437.5c-2.4,2.4-3.8,5.6-3.9,9c-0.1,3.4,1.2,6.7,3.6,9.1v-0.1l0.5,0.5
	c2.4,2.4,5.6,3.9,9,3.9c3.4,0.1,6.7-1.2,9.1-3.6L432,202V43.5l22.2-23.3C456.5,18,457.7,15,457.7,11.9z M344.9,151.3
	c-19.5,0-35.2-15.9-35.2-35.2c0-19.4,15.9-35.2,35.2-35.2c5.4,0,10.5,1.4,15.2,3.5l-14.9,14.8c-4.5,4.5-4.5,12,0,16.6
	c2.3,2.3,5.2,3.5,8.4,3.5c3.1,0,6.1-1.2,8.4-3.5l14.9-14.8c2.3,4.5,3.5,9.6,3.5,15.2C380.1,135.5,364.2,151.3,344.9,151.3z"/>
</svg>
