<svg xmlns="http://www.w3.org/2000/svg" xmlns:xlink="http://www.w3.org/1999/xlink" x="0px" y="0px"
	 viewBox="0 0 460 460" style="enable-background:new 0 0 460 460;" xml:space="preserve">
<path d="M16.5,278.3c-2.4,2.4-3.9,5.6-3.9,9c-0.1,3.4,1.2,6.7,3.6,9.1l0.4,0.4c2.4,2.4,5.6,3.9,9,3.9c3.4,0.1,6.7-1.2,9.1-3.6
	l67.1-64.8c2.4-2.4,5.7-3.6,9.1-3.6c3.4,0.1,6.6,1.5,9,3.9l0.9,1c2.4,2.4,3.6,5.7,3.6,9.1c-0.1,3.4-1.5,6.6-3.9,9l-86.7,83.5
	c-2.4,2.4-3.9,5.6-3.9,9c-0.1,3.4,1.2,6.7,3.6,9.1l0.4,0.4c2.4,2.4,5.6,3.9,9,3.9c3.4,0.1,6.7-1.2,9.1-3.6l39.7-38.3
	c2.4-2.4,5.7-3.6,9.1-3.6c3.4,0.1,6.6,1.5,9,3.9l0.4,0.4c2.4,2.4,3.6,5.7,3.6,9.1c-0.1,3.4-1.5,6.6-3.9,9l-68.4,65.8
	c-2.4,2.4-3.9,5.6-3.9,9c-0.1,3.4,1.2,6.7,3.6,9.1l0.4,0.4c2.4,2.4,5.6,3.9,9,3.9c3.4,0.1,6.7-1.2,9.1-3.6l92.7-89.2
	c2.4-2.4,5.7-3.6,9.1-3.6c3.4,0.1,6.6,1.5,9,3.9l0.4,0.4c2.4,2.4,3.6,5.7,3.6,9.1c-0.1,3.4-1.5,6.6-3.9,9l-57.5,55.4
	c-2.4,2.4-3.9,5.6-3.9,9c-0.1,3.4,1.2,6.7,3.6,9.1l0.4,0.4c2.4,2.4,5.6,3.9,9,3.9c3.4,0.1,6.7-1.2,9.1-3.6l72.3-69.5
	c2.4-2.4,5.7-3.6,9.1-3.6c3.4,0.1,6.6,1.5,9,3.9c4.9,5,4.8,13.1-0.2,18L155,437.5c-2.4,2.4-3.8,5.6-3.9,9c-0.1,3.4,1.2,6.7,3.6,9.1
	l0-0.1l0,0l0,0l0,0l0.5,0.5c2.4,2.4,5.6,3.9,9,3.9c3.4,0.1,6.7-1.2,9.1-3.6L432,202V38.3l25-25c2.6-2.6,2.6-6.9,0-9.5
	c-2.6-2.6-6.9-2.6-9.5,0l-25,25h-157L16.5,278.3z M357.9,123.2c-11.2,0-20.2-9.1-20.2-20.2s9.1-20.2,20.2-20.2c3.1,0,6,0.8,8.7,2
	l-13.4,13.4c-2.6,2.6-2.6,6.9,0,9.5c1.3,1.3,3,2,4.8,2s3.5-0.7,4.8-2l13.4-13.4c1.3,2.6,2,5.5,2,8.7
	C378.1,114.1,369,123.2,357.9,123.2z"/>
</svg>
